<svg viewBox="0 0 128 34" xmlns="http://www.w3.org/2000/svg" xmlns:xlink="http://www.w3.org/1999/xlink" width="128.000000" height="34.000000" fill="none" customFrame="#000000">
	<defs>
		<linearGradient id="paint_linear_69" x1="0" x2="115.449982" y1="17" y2="17" gradientUnits="userSpaceOnUse">
			<stop stop-color="rgb(133,134,142)" offset="0" stop-opacity="1" />
			<stop stop-color="rgb(191,194,201)" offset="0.999899983" stop-opacity="1" />
		</linearGradient>
		<linearGradient id="paint_linear_70" x1="110.429932" x2="115.449928" y1="10.8124294" y2="10.8124294" gradientUnits="userSpaceOnUse">
			<stop stop-color="rgb(133,134,142)" offset="0" stop-opacity="1" />
			<stop stop-color="rgb(191,194,201)" offset="0.999899983" stop-opacity="1" />
		</linearGradient>
		<linearGradient id="paint_linear_71" x1="115.449951" x2="127.999954" y1="8.5" y2="8.5" gradientUnits="userSpaceOnUse">
			<stop stop-color="rgb(133,134,142)" offset="0" stop-opacity="1" />
			<stop stop-color="rgb(191,194,201)" offset="0.999899983" stop-opacity="1" />
		</linearGradient>
	</defs>
	<g id="分组 2">
		<g id="矩形 3">
			<path id="路径" d="M110.43 10.42L115.45 0L34 0C24.98 0 16.33 3.58 9.96 9.96C3.58 16.33 0 24.98 0 34L100.45 34C108.73 34 115.45 27.28 115.45 19L115.45 17C114.18 28.1 111.18 16.51 110.43 10.42Z" fill="url(#paint_linear_69)" fill-rule="evenodd" />
			<path id="路径" d="M115.45 0L110.43 10.42C111.18 16.51 114.18 28.1 115.45 17L115.45 0Z" fill="url(#paint_linear_70)" fill-rule="evenodd" />
			<path id="路径" d="M128 0L115.45 0L115.45 17C116.45 8.23 119.97 3.84 128 0Z" fill="url(#paint_linear_71)" fill-rule="evenodd" />
		</g>
		<path id="" d="M32.0503 15.0986L48.0244 15.0986L48.0244 16.7861L32.0503 16.7861L32.0503 15.0986ZM33.3643 10.6514L46.75 10.6514L46.75 12.3389L33.3643 12.3389L33.3643 10.6514ZM39.0771 7.81689L40.8789 7.81689L40.8789 24.5117L39.0771 24.5117L39.0771 7.81689ZM38.7168 16.0215L40.1846 16.6367C39.7568 17.3516 39.2603 18.0488 38.6948 18.7285C38.1323 19.4082 37.5244 20.0513 36.8711 20.6577C36.2207 21.2612 35.5483 21.812 34.854 22.3101C34.1597 22.8081 33.4609 23.2402 32.7578 23.6064C32.6611 23.46 32.5396 23.2959 32.3931 23.1143C32.2466 22.9326 32.0957 22.7554 31.9404 22.5825C31.7852 22.4097 31.6401 22.2646 31.5054 22.1475C32.1938 21.8428 32.8853 21.4692 33.5796 21.0269C34.2739 20.5845 34.9419 20.0938 35.5835 19.5547C36.2251 19.0156 36.811 18.4458 37.3413 17.8452C37.8745 17.2446 38.333 16.6367 38.7168 16.0215ZM41.2437 16.0303C41.6245 16.6426 42.0845 17.2476 42.6235 17.8452C43.1655 18.4399 43.7559 19.0098 44.3945 19.5547C45.0361 20.0996 45.7026 20.5918 46.394 21.0312C47.0884 21.4707 47.7798 21.8442 48.4683 22.1519C48.3394 22.2603 48.1973 22.4009 48.042 22.5737C47.8867 22.7466 47.7358 22.9253 47.5894 23.1099C47.4458 23.2944 47.3257 23.4644 47.229 23.6196C46.5376 23.2563 45.8433 22.8228 45.146 22.3188C44.4517 21.8149 43.7793 21.2583 43.1289 20.6489C42.4785 20.0396 41.8735 19.395 41.314 18.7153C40.7544 18.0327 40.2578 17.3384 39.8242 16.6323L41.2437 16.0303ZM54.8667 11.2578L65.9717 11.2578L65.9717 12.9102L54.8667 12.9102L54.8667 11.2578ZM50.2744 8.87598L51.7334 8.1333C52.0264 8.48193 52.3208 8.86279 52.6167 9.27588C52.9126 9.68604 53.1851 10.0903 53.4341 10.4888C53.6831 10.8872 53.8706 11.249 53.9966 11.5742L52.4365 12.4224C52.3193 12.1001 52.1421 11.7324 51.9048 11.3193C51.6704 10.9062 51.4111 10.4858 51.127 10.0581C50.8457 9.63037 50.5615 9.23633 50.2744 8.87598ZM59.3579 7.85205L61.1201 7.85205C61.0908 9.021 61.041 10.1504 60.9707 11.2402C60.9004 12.3271 60.77 13.3628 60.5796 14.3472C60.3921 15.3286 60.1079 16.2456 59.7271 17.0981C59.3491 17.9478 58.8379 18.7212 58.1934 19.4185C57.5518 20.1128 56.7388 20.7192 55.7544 21.2378C55.6841 21.0942 55.5845 20.9375 55.4556 20.7676C55.3296 20.5977 55.1919 20.4336 55.0425 20.2754C54.896 20.1143 54.7568 19.9854 54.625 19.8887C55.5332 19.4287 56.2773 18.8911 56.8574 18.2759C57.4375 17.6577 57.8916 16.9692 58.2197 16.2104C58.5508 15.4487 58.7939 14.6255 58.9492 13.7407C59.1045 12.856 59.2056 11.9199 59.2524 10.9326C59.3022 9.94531 59.3374 8.91846 59.3579 7.85205ZM53.8296 14.4438L53.8296 21.2026L52.1201 21.2026L52.1201 16.083L49.7734 16.083L49.7734 14.4438L53.8296 14.4438ZM52.9639 20.4028C53.1748 20.4028 53.3726 20.4585 53.5571 20.5698C53.7446 20.6782 53.9541 20.8203 54.1855 20.9961C54.4199 21.1719 54.7056 21.3667 55.0425 21.5806C55.6489 21.9526 56.3491 22.1899 57.1431 22.2925C57.9399 22.395 58.8496 22.4463 59.8721 22.4463C60.3789 22.4463 60.9224 22.4375 61.5024 22.4199C62.0825 22.4023 62.6685 22.376 63.2603 22.3408C63.8521 22.3057 64.4189 22.2661 64.9609 22.2222C65.5029 22.1753 65.9951 22.1196 66.4375 22.0552C66.373 22.2046 66.3013 22.3936 66.2222 22.6221C66.146 22.8477 66.0815 23.0718 66.0288 23.2944C65.9761 23.5171 65.9438 23.7119 65.9321 23.8789C65.6274 23.8965 65.2217 23.917 64.7148 23.9404C64.208 23.9639 63.6587 23.9844 63.0669 24.002C62.4751 24.0225 61.8921 24.0386 61.3179 24.0503C60.7466 24.062 60.2456 24.0679 59.8149 24.0679C58.6665 24.0679 57.6909 23.999 56.8882 23.8613C56.0884 23.7236 55.3647 23.4585 54.7173 23.0659C54.3218 22.8286 53.9746 22.5884 53.6758 22.3452C53.3799 22.0991 53.1294 21.9761 52.9243 21.9761C52.7368 21.9761 52.5215 22.0889 52.2783 22.3145C52.0352 22.54 51.7803 22.8315 51.5137 23.189C51.2471 23.5493 50.9761 23.9302 50.7007 24.3315L49.5273 22.7012C50.1426 22.0186 50.7563 21.4648 51.3687 21.04C51.981 20.6152 52.5127 20.4028 52.9639 20.4028ZM59.125 14.8745L60.4961 13.9912C61.0059 14.4658 61.5229 14.9683 62.0474 15.4985C62.5747 16.0259 63.0874 16.5605 63.5854 17.1025C64.0864 17.6445 64.5464 18.1689 64.9653 18.6758C65.3843 19.1797 65.7373 19.6382 66.0244 20.0513L64.5874 21.1367C64.3149 20.7207 63.9678 20.2505 63.5459 19.7261C63.127 19.2017 62.6699 18.6553 62.1748 18.0869C61.6826 17.5186 61.1743 16.9604 60.6499 16.4126C60.1255 15.8618 59.6172 15.3491 59.125 14.8745ZM70.1641 14.5625L74.4971 14.5625L74.4971 16.1313L70.1641 16.1313L70.1641 14.5625ZM73.8379 14.5625L75.4902 14.5625C75.4902 14.5625 75.4902 14.6035 75.4902 14.6855C75.4902 14.7676 75.4888 14.8628 75.4858 14.9712C75.4829 15.0767 75.4814 15.1646 75.4814 15.2349C75.458 16.5474 75.4272 17.6167 75.3892 18.4429C75.3511 19.269 75.2954 19.9019 75.2222 20.3413C75.1489 20.7808 75.0449 21.0869 74.9102 21.2598C74.7578 21.4531 74.5908 21.5908 74.4092 21.6729C74.2305 21.7549 74.0122 21.8149 73.7544 21.853C73.5171 21.8853 73.2095 21.9028 72.8315 21.9058C72.4536 21.9058 72.0464 21.8984 71.6099 21.8838C71.5981 21.6348 71.5498 21.3608 71.4648 21.062C71.3799 20.7603 71.2744 20.5024 71.1484 20.2886C71.5176 20.3237 71.8647 20.3457 72.1899 20.3545C72.5151 20.3633 72.7524 20.3677 72.9019 20.3677C73.0249 20.3677 73.1304 20.3545 73.2183 20.3281C73.3091 20.2988 73.3882 20.2446 73.4556 20.1655C73.5435 20.0601 73.6108 19.8257 73.6577 19.4624C73.7046 19.0962 73.7412 18.5425 73.7676 17.8013C73.7969 17.0601 73.8203 16.0698 73.8379 14.8306L73.8379 14.5625ZM79.0498 8.80566L80.0781 7.77295C80.4385 7.94873 80.8164 8.15527 81.2119 8.39258C81.6074 8.62988 81.981 8.86865 82.3325 9.10889C82.687 9.34619 82.9771 9.56885 83.2026 9.77686L82.1216 10.9282C81.9106 10.7202 81.6323 10.4902 81.2866 10.2383C80.9409 9.9834 80.5718 9.73145 80.1792 9.48242C79.7896 9.23047 79.4131 9.00488 79.0498 8.80566ZM81.436 13.5825L83.1455 14C82.3867 16.3467 81.3452 18.3989 80.021 20.1567C78.6997 21.9146 77.1323 23.3398 75.3188 24.4326C75.2397 24.3096 75.124 24.1602 74.9717 23.9844C74.8223 23.8115 74.667 23.6372 74.5059 23.4614C74.3477 23.2856 74.2041 23.1436 74.0752 23.0352C75.8623 22.0801 77.3726 20.7983 78.606 19.1899C79.8423 17.5815 80.7856 15.7124 81.436 13.5825ZM70.2739 10.7041L84.187 10.7041L84.187 12.3784L70.2739 12.3784L70.2739 10.7041ZM69.1489 10.7041L70.9287 10.7041L70.9287 15.8765C70.9287 16.5327 70.9038 17.2446 70.854 18.0122C70.8071 18.7798 70.7178 19.5635 70.5859 20.3633C70.4541 21.1602 70.2607 21.9307 70.0059 22.6748C69.751 23.416 69.4155 24.084 68.9995 24.6787C68.9087 24.5615 68.7725 24.4268 68.5908 24.2744C68.4092 24.1221 68.2261 23.9756 68.0415 23.835C67.8569 23.6943 67.6973 23.5918 67.5625 23.5273C68.0488 22.7979 68.4019 21.9878 68.6216 21.0972C68.8442 20.2065 68.9878 19.3071 69.0522 18.3989C69.1167 17.4878 69.1489 16.6411 69.1489 15.8589L69.1489 10.7041ZM76.5581 7.82568L78.3379 7.82568C78.3232 9.40479 78.376 10.9253 78.4961 12.3872C78.6162 13.8491 78.7905 15.2026 79.019 16.4478C79.2476 17.6929 79.52 18.7798 79.8364 19.7085C80.1528 20.6343 80.5029 21.3564 80.8867 21.875C81.2734 22.3906 81.6748 22.6484 82.0908 22.6484C82.3281 22.6484 82.5068 22.3965 82.627 21.8926C82.75 21.3887 82.835 20.5537 82.8818 19.3877C83.0781 19.5752 83.314 19.7583 83.5894 19.937C83.8647 20.1157 84.1167 20.2476 84.3452 20.3325C84.2485 21.396 84.1094 22.2222 83.9277 22.811C83.749 23.3999 83.5015 23.8086 83.1851 24.0371C82.8716 24.2686 82.4614 24.3843 81.9546 24.3843C81.3306 24.3843 80.7622 24.1733 80.2495 23.7515C79.7397 23.3296 79.2856 22.7378 78.8872 21.9761C78.4917 21.2114 78.1504 20.3105 77.8633 19.2734C77.5762 18.2363 77.3374 17.1011 77.147 15.8677C76.9565 14.6313 76.813 13.3335 76.7163 11.9741C76.6226 10.6147 76.5698 9.23193 76.5581 7.82568Z" fill="rgb(255,255,255)" fill-opacity="0.701960802" fill-rule="nonzero" />
	</g>
</svg>
