<svg viewBox="0 0 128 34" xmlns="http://www.w3.org/2000/svg" xmlns:xlink="http://www.w3.org/1999/xlink" width="128.000000" height="34.000000" fill="none" customFrame="#000000">
	<defs>
		<linearGradient id="paint_linear_66" x1="0" x2="115.449982" y1="17" y2="17" gradientUnits="userSpaceOnUse">
			<stop stop-color="rgb(160,120,60)" offset="0" stop-opacity="1" />
			<stop stop-color="rgb(210,181,127)" offset="0.999899983" stop-opacity="1" />
		</linearGradient>
		<linearGradient id="paint_linear_67" x1="110.429932" x2="115.449928" y1="10.8124294" y2="10.8124294" gradientUnits="userSpaceOnUse">
			<stop stop-color="rgb(160,120,60)" offset="0" stop-opacity="1" />
			<stop stop-color="rgb(210,181,127)" offset="0.999899983" stop-opacity="1" />
		</linearGradient>
		<linearGradient id="paint_linear_68" x1="115.449951" x2="127.999954" y1="8.5" y2="8.5" gradientUnits="userSpaceOnUse">
			<stop stop-color="rgb(160,120,60)" offset="0" stop-opacity="1" />
			<stop stop-color="rgb(210,181,127)" offset="0.999899983" stop-opacity="1" />
		</linearGradient>
	</defs>
	<g id="分组 2">
		<g id="矩形 3">
			<path id="路径" d="M115.45 17C114.18 28.1 111.18 16.51 110.43 10.42L115.45 0L34 0C24.98 0 16.33 3.58 9.96 9.96C3.58 16.33 0 24.98 0 34L100.45 34C108.73 34 115.45 27.28 115.45 19L115.45 17Z" fill="url(#paint_linear_66)" fill-rule="evenodd" />
			<path id="路径" d="M115.45 0L110.43 10.42C111.18 16.51 114.18 28.1 115.45 17L115.45 0Z" fill="url(#paint_linear_67)" fill-rule="evenodd" />
			<path id="路径" d="M128 0L115.45 0L115.45 17C116.45 8.23 119.97 3.84 128 0Z" fill="url(#paint_linear_68)" fill-rule="evenodd" />
		</g>
		<path id="" d="M36.1284 7.47607C35.6274 8.87793 34.709 10.75 33.9707 11.9365L35.4473 12.4771C36.2207 11.3433 37.1919 9.61621 37.9478 8.06934L36.1284 7.47607ZM27.9414 11.686C27.5635 10.5522 26.6274 8.89551 25.6519 7.63428L24.1401 8.24951C25.0586 9.50635 25.9946 11.2378 26.3374 12.3892L27.9414 11.686ZM31.9009 6.896L30.0815 6.896L30.0815 13.145L24.4478 13.145L24.4478 14.8193L35.9131 14.8193L35.9131 17.0122L25.0586 17.0122L25.0586 18.6162L35.9131 18.6162L35.9131 20.9937L24.0874 20.9937L24.0874 22.668L35.9131 22.668L35.9131 23.4238L37.6973 23.4238L37.6973 13.145L31.9009 13.145L31.9009 6.896ZM43.6167 18.3086L43.6167 16.7793L47.1807 16.7793L47.1807 18.3086L43.6167 18.3086ZM47.1807 14.0239L47.1807 15.5005L43.6167 15.5005L43.6167 14.0239L47.1807 14.0239ZM48.7847 12.6045L42.0522 12.6045L42.0522 23.3315L43.6167 23.3315L43.6167 19.5874L47.1807 19.5874L47.1807 21.6221C47.1807 21.855 47.1104 21.9297 46.8599 21.9473C46.6401 21.9648 45.8491 21.9648 45.0581 21.9297C45.2734 22.3076 45.5063 22.9536 45.6162 23.3667C46.75 23.3667 47.5586 23.3491 48.0991 23.0811C48.6221 22.8481 48.7847 22.4307 48.7847 21.6572L48.7847 12.6045ZM54.2734 21.4595C54.2734 21.71 54.1855 21.7847 53.8955 21.8022C53.6274 21.8198 52.6519 21.8198 51.6455 21.7847C51.8784 22.1978 52.1685 22.9185 52.2388 23.3667C53.5879 23.3843 54.5239 23.3315 55.1216 23.0635C55.7324 22.8086 55.9302 22.3604 55.9302 21.4771L55.9302 12.2617L54.2734 12.2617L54.2734 21.4595ZM52.2388 12.7671L50.6919 12.7671L50.6919 20.0928L52.2388 20.0928L52.2388 12.7671ZM53.0869 9.63379C53.5879 8.94824 54.0933 8.15723 54.5811 7.38379L52.7617 6.82568C52.4014 7.67383 51.7729 8.79004 51.1797 9.63379L45.9941 9.63379L46.9126 9.29102C46.605 8.60986 45.8491 7.59912 45.1855 6.87842L43.6167 7.41895C44.1748 8.08691 44.8076 8.98779 45.1108 9.63379L40.9888 9.63379L40.9888 11.1631L57.0288 11.1631L57.0288 9.63379L53.0869 9.63379ZM75.1343 16.3135L75.1343 14.8896L67.8481 14.8896L67.8481 13.5229L73.46 13.5229L73.46 12.1343L67.8481 12.1343L67.8481 11.0576L67.7383 11.0576C68.0986 10.6401 68.4414 10.2095 68.7622 9.7041L69.7554 9.7041C70.2388 10.3721 70.7441 11.1982 70.9595 11.7212L72.4009 11.1279C72.2207 10.7148 71.8955 10.2095 71.5527 9.7041L74.9937 9.7041L74.9937 8.31982L69.5576 8.31982C69.7378 7.94189 69.896 7.58154 70.041 7.18604L68.4238 6.80811C68.0811 7.83203 67.4878 8.8252 66.8022 9.65137L66.8022 8.31982L62.4473 8.31982C62.6274 7.95947 62.8076 7.59912 62.9482 7.22119L61.3486 6.80811C60.7554 8.3374 59.7095 9.90186 58.5757 10.895C58.9712 11.1104 59.6567 11.5762 59.96 11.8486C60.54 11.2729 61.1333 10.5171 61.6519 9.7041L62.1572 9.7041C62.4824 10.3721 62.8076 11.1631 62.9482 11.6685L64.3896 11.1104C64.2842 10.7324 64.0469 10.2095 63.814 9.7041L66.7495 9.7041C66.4771 10.0469 66.1738 10.3369 65.8486 10.605C66.0464 10.7148 66.2969 10.8774 66.5518 11.0576L66.1167 11.0576L66.1167 12.1343L60.6982 12.1343L60.6982 13.5229L66.1167 13.5229L66.1167 14.8896L58.9185 14.8896L58.9185 16.3135L69.6982 16.3135L69.6982 17.6626L59.5117 17.6626L59.5117 19.104L62.9878 19.104L62.0122 19.8379C63.0933 20.6333 64.3369 21.7671 64.8774 22.5933L66.1738 21.5342C65.6509 20.7739 64.5347 19.8027 63.5239 19.104L69.6982 19.104L69.6982 21.5518C69.6982 21.8022 69.6279 21.855 69.3027 21.8726C68.9995 21.8901 67.936 21.8901 66.855 21.855C67.0879 22.2681 67.3779 22.9536 67.4658 23.4238C68.8896 23.4238 69.8784 23.4019 70.5464 23.1514C71.21 22.9185 71.4297 22.4658 71.4297 21.5869L71.4297 19.104L74.6333 19.104L74.6333 17.6626L71.4297 17.6626L71.4297 16.3135L75.1343 16.3135ZM79.7793 16.4014C81.0229 14.8896 82.2095 13.145 83.2158 11.418L81.8491 10.5522C81.5063 11.1982 81.146 11.8838 80.7505 12.4946L78.7158 12.71C79.7969 11.1982 80.8252 9.32617 81.5986 7.58154L80.0693 6.82568C79.3486 8.98779 78.0347 11.2554 77.6392 11.8486C77.2261 12.4419 76.9009 12.855 76.5757 12.9473C76.7559 13.3604 77.0063 14.1338 77.0986 14.4766C77.3843 14.3315 77.8018 14.2261 79.7969 13.9712C79.0586 15.0522 78.4126 15.8784 78.0874 16.2388C77.5293 16.9067 77.0986 17.3198 76.6855 17.4121C76.8657 17.8428 77.1162 18.5811 77.2041 18.9019C77.6216 18.5986 78.2852 18.3481 82.9653 16.9771C82.9126 16.6167 82.8599 15.9883 82.8774 15.54L79.7793 16.4014ZM82.9302 18.5811C80.6626 19.4248 78.3379 20.2905 76.8262 20.7959L77.2437 22.4482C78.9355 21.7495 81.168 20.8662 83.2378 20.0181L82.9302 18.5811ZM89.1572 9.59863C88.7617 11.2378 88.2388 13.0176 87.8433 14.2261L90.8491 14.2261C90.436 15.7905 89.8252 17.1748 89.0122 18.3262C87.9355 16.854 87.0874 15.1226 86.4941 13.3076C86.6216 12.1343 86.7095 10.895 86.7798 9.59863L89.1572 9.59863ZM91.7148 12.71L91.4248 12.7847L89.9131 12.7847C90.3657 11.3081 90.8315 9.52393 91.2271 8.03418L83.2378 8.03418L83.2378 9.59863L85.1274 9.59863C84.8901 15.1621 84.209 19.7148 81.8315 22.4482C82.2271 22.668 83.0181 23.2041 83.2905 23.4766C84.7319 21.6221 85.5757 19.1919 86.0986 16.3135C86.6392 17.5 87.2676 18.6162 88.0234 19.6226C87.0347 20.7212 85.8833 21.5693 84.6045 22.1802C84.9473 22.4307 85.5405 23.0635 85.7559 23.459C86.96 22.8086 88.0762 21.9648 89.0518 20.8838C90.0054 21.9121 91.082 22.7559 92.2905 23.3843C92.5234 22.9536 93.0288 22.3428 93.3892 22.0176C92.1631 21.4595 91.0469 20.6333 90.0757 19.605C91.3018 17.8779 92.2158 15.7158 92.7388 13.1274L91.7148 12.71Z" fill="rgb(255,255,255)" fill-opacity="0.701960802" fill-rule="nonzero" />
	</g>
</svg>
