<svg viewBox="0 0 60 60" xmlns="http://www.w3.org/2000/svg" xmlns:xlink="http://www.w3.org/1999/xlink" width="60.000000" height="60.000000" fill="none" customFrame="#000000">
	<mask id="mask_14" width="55.833496" height="61.660156" x="1.806519" y="-2.198242" maskUnits="userSpaceOnUse">
		<g filter="url(#pixso_custom_mask_type_outline)">
			<rect id="组 126145" width="55.833496" height="61.660156" x="1.806519" y="-2.198242" fill="rgb(255,255,255)" />
		</g>
	</mask>
	<mask id="mask_13" width="48.000000" height="56.000000" x="6.000000" y="2.000000" maskUnits="userSpaceOnUse">
		<g filter="url(#pixso_custom_mask_type_outline)">
			<path id="路径" d="M6 2L54.0001 2L54.0001 58L6 58L6 2Z" fill="rgb(255,255,255)" fill-rule="evenodd" />
		</g>
	</mask>
	<mask id="mask_12" width="48.000000" height="56.000000" x="6.000000" y="2.000000" maskUnits="userSpaceOnUse">
		<g filter="url(#pixso_custom_mask_type_outline)">
			<rect id="休闲" width="48.000000" height="56.000000" x="6.000000" y="2.000000" fill="rgb(255,255,255)" />
		</g>
	</mask>
	<defs>
		<filter id="pixso_custom_mask_type_outline">
			<feColorMatrix type="matrix" values="0 0 0 0 1 0 0 0 0 1 0 0 0 0 1 0 0 0 1 0 " />
		</filter>
		<linearGradient id="paint_linear_14" x1="2.07215428" x2="2.07215428" y1="8.28861809" y2="19.9706955" gradientUnits="userSpaceOnUse">
			<stop stop-color="rgb(154,69,35)" offset="0" stop-opacity="1" />
			<stop stop-color="rgb(203,147,102)" offset="0.332903326" stop-opacity="1" />
			<stop stop-color="rgb(229,187,136)" offset="1" stop-opacity="1" />
		</linearGradient>
		<linearGradient id="paint_linear_15" x1="0" x2="0" y1="0" y2="47.203434" gradientUnits="userSpaceOnUse">
			<stop stop-color="rgb(250,225,145)" offset="0" stop-opacity="1" />
			<stop stop-color="rgb(239,157,77)" offset="1" stop-opacity="1" />
		</linearGradient>
		<linearGradient id="paint_linear_16" x1="0" x2="0" y1="0" y2="44.7427483" gradientUnits="userSpaceOnUse">
			<stop stop-color="rgb(237,128,52)" offset="0" stop-opacity="0" />
			<stop stop-color="rgb(237,130,52)" offset="1" stop-opacity="1" />
		</linearGradient>
		<linearGradient id="paint_linear_17" x1="0" x2="0" y1="0" y2="27.2327614" gradientUnits="userSpaceOnUse">
			<stop stop-color="rgb(208,89,39)" offset="0" stop-opacity="0" />
			<stop stop-color="rgb(207,90,37)" offset="1" stop-opacity="1" />
		</linearGradient>
		<linearGradient id="paint_linear_18" x1="0" x2="0" y1="0" y2="27.2327614" gradientUnits="userSpaceOnUse">
			<stop stop-color="rgb(208,89,39)" offset="0" stop-opacity="0" />
			<stop stop-color="rgb(207,90,37)" offset="1" stop-opacity="1" />
		</linearGradient>
	</defs>
	<mask id="mask_11" width="60.000000" height="60.000000" x="0.000000" y="0.000000" maskUnits="userSpaceOnUse">
		<g filter="url(#pixso_custom_mask_type_outline)">
			<rect id="休闲60x60" width="60.000000" height="60.000000" x="0.000000" y="0.000000" fill="rgb(255,255,255)" />
		</g>
	</mask>
	<g id="休闲60x60" showMaskRef="url(#show_mask_11)" mask="url(#mask_11)">
		<rect id="show_mask_11" width="60.000000" height="60.000000" x="0.000000" y="0.000000" fill="rgb(255,255,255)" fill-opacity="0.00392156886" />
		<path id="路径" d="M0 0L60 0L60 60L0 60L0 0Z" fill-rule="evenodd" />
		<g id="休闲">
			<g id="MaskGroup" showMaskRef="url(#show_mask_12)" mask="url(#mask_12)">
				<rect id="show_mask_12" width="48.000000" height="56.000000" x="6.000000" y="2.000000" fill="rgb(255,255,255)" fill-opacity="0.00392156886" />
				<path id="路径" d="M6 2L54.0001 2L54.0001 58L6 58L6 2Z" fill-rule="evenodd" />
			</g>
			<g showMaskRef="url(#show_mask_13)" mask="url(#mask_13)">
				<path id="show_mask_13" d="M6 2L54.0001 2L54.0001 58L6 58L6 2Z" fill="rgb(196,196,196)" fill-opacity="0.00392156886" fill-rule="evenodd" />
				<g id="组 126145" showMaskRef="url(#show_mask_14)" mask="url(#mask_14)">
					<rect id="show_mask_14" width="55.833496" height="61.660156" x="1.806519" y="-2.198242" fill="rgb(255,255,255)" fill-opacity="0.00392156886" />
					<path id="路径" d="M1.80652 -2.19824L57.6401 -2.19824L57.6401 59.4619L1.80652 59.4619L1.80652 -2.19824Z" fill-rule="evenodd" />
					<path id="路径" d="M0 0L9.98535 0L9.98535 19.9707L0 19.9707L0 0Z" fill="rgb(158,76,38)" fill-rule="evenodd" transform="matrix(0.866025,0.5,-0.5,0.866025,17.3512,37.1741)" />
					<path id="路径" d="M0 0L9.98535 0L9.98535 19.9707L0 19.9707L0 0Z" fill="url(#paint_linear_14)" fill-rule="evenodd" transform="matrix(0.866025,0.5,-0.5,0.866025,17.8052,36.3879)" />
					<path id="路径" d="M0 0L37.2181 0L37.2181 47.2034L0 47.2034L0 0Z" fill="url(#paint_linear_15)" fill-rule="evenodd" transform="matrix(0.866025,0.5,-0.5,0.866025,25.4082,-2.19824)" />
					<path id="路径" d="M24.1294 44.7427L10.9111 44.7427C8.56994 44.7427 6.30138 44.0683 4.35073 42.7923C2.44977 41.5487 0.94531 39.8032 0 37.7442C2.10512 39.353 4.62217 40.204 7.28056 40.204L20.4988 40.204C27.1155 40.204 32.4986 34.821 32.4986 28.2043L32.4986 5.00054C32.4986 3.25563 32.1324 1.5732 31.4101 0C32.8463 1.09777 34.0337 2.5275 34.8454 4.13342C35.6973 5.81864 36.1292 7.63742 36.1292 9.53924L36.1292 32.743C36.1292 35.9484 34.881 38.9619 32.6147 41.2282C30.3483 43.4946 27.3349 44.7427 24.1294 44.7427Z" fill="url(#paint_linear_16)" fill-rule="evenodd" transform="matrix(0.866025,0.5,-0.5,0.866025,25.1207,0.476929)" />
					<path id="路径" d="M0 0L6.3543 0L6.3543 27.2328L0 27.2328L0 0Z" fill="url(#paint_linear_17)" fill-rule="evenodd" transform="matrix(0.866025,0.5,-0.5,0.866025,28.3986,8.96191)" />
					<path id="路径" d="M0 0L6.3543 0L6.3543 27.2328L0 27.2328L0 0Z" fill="url(#paint_linear_18)" fill-rule="evenodd" transform="matrix(0.866025,0.5,-0.5,0.866025,37.8323,14.4084)" />
				</g>
			</g>
		</g>
		<path id="路径" d="M0 0L60 0L60 60L0 60L0 0Z" fill-rule="evenodd" />
	</g>
</svg>
