<svg viewBox="0 0 73 73" xmlns="http://www.w3.org/2000/svg" xmlns:xlink="http://www.w3.org/1999/xlink" width="73.000000" height="73.000000" fill="none" customFrame="#000000">
	<defs>
		<filter id="pixso_custom_mask_type_outline">
			<feColorMatrix type="matrix" values="0 0 0 0 1 0 0 0 0 1 0 0 0 0 1 0 0 0 1 0 " />
		</filter>
		<g id="pixso_custom_effect_0">
			<effect x="0.000000" y="0.000000" visibility="visible" fill="rgb(255,255,255)" fill-opacity="0.800000012" effectType="innerShadow" stdDeviation="6" radius="0" />
		</g>
		<filter id="filter_0" width="73.000000" height="40.149902" x="0.000000" y="32.498047" filterUnits="userSpaceOnUse" customEffect="url(#pixso_custom_effect_0)" color-interpolation-filters="sRGB">
			<feFlood flood-opacity="0" result="BackgroundImageFix" />
			<feBlend result="shape" in="SourceGraphic" in2="BackgroundImageFix" mode="normal" />
			<feOffset dx="0.000000" dy="0.000000" in="SourceAlpha" />
			<feGaussianBlur stdDeviation="2" />
			<feComposite k2="-1" k3="1" in2="SourceAlpha" operator="arithmetic" />
			<feColorMatrix type="matrix" values="0 0 0 0 1 0 0 0 0 1 0 0 0 0 1 0 0 0 0.8 0 " />
			<feBlend result="effect_innerShadow_1" in2="shape" mode="normal" />
		</filter>
		<linearGradient id="paint_linear_3" x1="0" x2="0" y1="32.4980469" y2="72.6479492" gradientUnits="userSpaceOnUse">
			<stop stop-color="rgb(255,227,238)" offset="0" stop-opacity="1" />
			<stop stop-color="rgb(255,240,246)" offset="1" stop-opacity="1" />
		</linearGradient>
		<linearGradient id="paint_linear_4" x1="-10.2635536" x2="18.0440884" y1="13.5533371" y2="64.1090012" gradientUnits="userSpaceOnUse">
			<stop stop-color="rgb(235,124,167)" offset="0" stop-opacity="1" />
			<stop stop-color="rgb(255,112,176)" offset="0.0102564003" stop-opacity="1" />
			<stop stop-color="rgb(255,85,132)" offset="1" stop-opacity="1" />
		</linearGradient>
	</defs>
	<mask id="mask_3" width="73.000000" height="73.000000" x="0.000000" y="0.000000" maskUnits="userSpaceOnUse">
		<g filter="url(#pixso_custom_mask_type_outline)">
			<rect id="收藏、喜欢" width="73.000000" height="73.000000" x="0.000000" y="0.000000" fill="rgb(255,255,255)" />
		</g>
	</mask>
	<g id="收藏、喜欢" showMaskRef="url(#show_mask_3)" mask="url(#mask_3)">
		<rect id="show_mask_3" width="73.000000" height="73.000000" x="0.000000" y="0.000000" fill="rgb(255,255,255)" fill-opacity="0.00392156886" />
		<path id="路径" d="M0 0L73 0L73 73L0 73L0 0Z" fill-rule="evenodd" />
		<g filter="url(#filter_0)">
			<path id="路径 118133" d="M36.5 72.6479C26.7506 72.6479 17.5847 70.5598 10.6907 66.7679C7.33857 64.9243 4.70678 62.7774 2.86838 60.3869C0.965065 57.912 0 55.283 0 52.5729C0 49.8629 0.965065 47.2339 2.86838 44.759C4.70678 42.3685 7.33857 40.2216 10.6907 38.378C17.5847 34.5862 26.7506 32.498 36.5 32.498C46.2494 32.498 55.4153 34.5862 62.3093 38.378C65.6615 40.2216 68.2932 42.3685 70.1317 44.759C72.035 47.2339 73 49.8629 73 52.5729C73 55.283 72.035 57.912 70.1317 60.3869C68.2932 62.7774 65.6615 64.9243 62.3093 66.7679C55.4153 70.5598 46.2494 72.6479 36.5 72.6479ZM13.9554 55.7424C13.9554 50.4989 24.0689 46.2331 36.5 46.2331C48.9306 46.2331 59.0437 50.4989 59.0437 55.7424C59.0437 60.9858 48.9306 65.2516 36.5 65.2516C24.0689 65.2516 13.9554 60.9858 13.9554 55.7424Z" fill="url(#paint_linear_3)" fill-rule="evenodd" />
		</g>
		<path id="路径" d="M0.12981 54.4432L0.129284 54.4397C0.0434991 53.8724 0 53.2936 0 52.7193C0 49.9891 0.965129 47.3411 2.86856 44.8486C4.70627 42.4405 7.33801 40.2778 10.6907 38.4205C17.5846 34.6013 26.7505 32.498 36.5 32.498C46.2485 32.498 55.4144 34.6013 62.3093 38.4205C65.661 40.2778 68.2927 42.4405 70.1314 44.8486C72.0348 47.3411 72.9999 49.9891 72.9999 52.7193L72.9999 52.7415L72.9998 52.7527C67.6461 44.4576 53.1942 38.8841 37.0362 38.8841C28.4131 38.8841 20.279 40.4139 13.5134 43.3082C6.95455 46.114 2.20202 50.0674 0.131324 54.44L0.12981 54.4432Z" fill="rgb(255,255,255)" fill-rule="evenodd" />
		<path id="路径" d="M39.3212 54.9367C65.935 39.7861 66.664 24.3928 65.7167 18.4187C64.5419 11.0125 59.141 5.14453 52.2758 3.8186C46.497 2.70288 40.9316 5.03711 36.9433 10.1169C32.8954 5.08203 27.3002 2.81372 21.537 3.99487C14.6879 5.40112 9.35388 11.3291 8.2655 18.7485C7.38464 24.7607 8.30896 40.2556 35.4472 55.1579C35.4472 55.1579 37.663 56.0591 39.3212 54.9367Z" fill="rgb(255,59,122)" fill-rule="evenodd" />
		<path id="路径" d="M39.3212 51.7453C65.935 36.5947 66.664 21.2014 65.7167 15.2273C64.5419 7.82105 59.141 1.95313 52.2758 0.627198C46.497 -0.488525 40.9316 1.84571 36.9433 6.92554C32.8954 1.89063 27.3002 -0.377685 21.537 0.803467C14.6879 2.20972 9.35388 8.1377 8.2655 15.5571C7.38464 21.5693 8.30896 37.0642 35.4472 51.9665C35.4472 51.9665 37.663 52.8677 39.3212 51.7453Z" fill="url(#paint_linear_4)" fill-rule="evenodd" />
		<path id="路径" d="M38.3856 41.4659C54.2343 32.4444 54.6679 23.2778 54.1039 19.7197C53.4047 15.3091 50.1879 11.8157 46.1005 11.0254C42.6601 10.3613 39.3446 11.7517 36.9701 14.7766C34.5595 11.7776 31.2284 10.4277 27.7967 11.1309C23.7176 11.9675 20.5409 15.4985 19.8929 19.916C19.368 23.4963 19.9183 32.7236 36.079 41.5979C36.079 41.5979 37.3983 42.134 38.3856 41.4659Z" fill="rgb(246,203,222)" fill-rule="evenodd" />
		<path id="路径" d="M36.0789 41.5968C32.8199 39.8073 30.1949 38.0028 28.0864 36.2338L45.1769 10.8955C45.483 10.9223 45.7913 10.9653 46.1 11.0249C50.1871 11.8151 53.4046 15.3084 54.1029 19.7193C54.667 23.2768 54.2331 32.4435 38.3844 41.4656C38.006 41.7217 37.5787 41.8006 37.1956 41.8006C36.5801 41.8006 36.0789 41.5968 36.0789 41.5968Z" fill="rgb(247,215,228)" fill-rule="evenodd" />
		<path id="路径" d="M28.0864 36.2338L45.1769 10.8955C45.483 10.9223 45.7913 10.9653 46.1 11.0249C50.1871 11.8151 53.4046 15.3084 54.1029 19.7193C54.667 23.2768 54.2331 32.4435 38.3844 41.4656C38.006 41.7217 37.5787 41.8006 37.1956 41.8006C36.5801 41.8006 36.0789 41.5968 36.0789 41.5968C32.8199 39.8073 30.1949 38.0028 28.0864 36.2338Z" fill-rule="evenodd" stroke="rgb(0,0,0)" stroke-opacity="0" stroke-linecap="butt" stroke-dasharray="0 0 " stroke-width="1.000000" />
		<path id="路径" d="M0 0L73 0L73 73L0 73L0 0Z" fill-rule="evenodd" />
	</g>
</svg>
