<svg viewBox="0 0 8 10" xmlns="http://www.w3.org/2000/svg" xmlns:xlink="http://www.w3.org/1999/xlink" width="8.000000" height="10.000000" fill="none" customFrame="#000000">
	<defs>
		<filter id="pixso_custom_mask_type_outline">
			<feColorMatrix type="matrix" values="0 0 0 0 1 0 0 0 0 1 0 0 0 0 1 0 0 0 1 0 " />
		</filter>
	</defs>
	<mask id="mask_0" width="8.000000" height="10.000000" x="0.000000" y="0.000000" maskUnits="userSpaceOnUse">
		<g filter="url(#pixso_custom_mask_type_outline)">
			<rect id="查看" width="8.000000" height="10.000000" x="0.000000" y="0.000000" fill="rgb(255,255,255)" />
		</g>
	</mask>
	<g id="查看" showMaskRef="url(#show_mask_0)" mask="url(#mask_0)">
		<rect id="show_mask_0" width="8.000000" height="10.000000" x="0.000000" y="0.000000" fill="rgb(255,255,255)" fill-opacity="0.00392156886" />
		<path id="路径" d="M0 0L8 0L8 10L0 10L0 0Z" fill-rule="evenodd" />
		<path id="路径" d="M6.54626 5.31401L2.06253 8.52783C1.75096 8.7497 1.28265 8.55946 1.28265 8.21257L1.28265 1.78592C1.28265 1.4399 1.75185 1.24968 2.06161 1.47161L6.54626 4.68448C6.65297 4.7536 6.71742 4.87209 6.71742 4.99925C6.71742 5.1264 6.65297 5.2449 6.54626 5.31401Z" fill="rgb(52,52,52)" fill-rule="evenodd" />
		<path id="路径" d="M0 0L8 0L8 10L0 10L0 0Z" fill-rule="evenodd" />
	</g>
</svg>
