<svg viewBox="0 0 44 54" xmlns="http://www.w3.org/2000/svg" xmlns:xlink="http://www.w3.org/1999/xlink" width="44.000000" height="54.000000" fill="none" customFrame="#000000">
	<mask id="mask_8" width="43.734009" height="53.038940" x="0.132935" y="0.500000" maskUnits="userSpaceOnUse">
		<g filter="url(#pixso_custom_mask_type_outline)">
			<rect id="组 125901" width="43.734009" height="53.038940" x="0.132935" y="0.500000" fill="rgb(255,255,255)" />
		</g>
	</mask>
	<defs>
		<filter id="pixso_custom_mask_type_outline">
			<feColorMatrix type="matrix" values="0 0 0 0 1 0 0 0 0 1 0 0 0 0 1 0 0 0 1 0 " />
		</filter>
		<g id="pixso_custom_effect_1">
			<effect x="0.000000" y="-2.000000" visibility="visible" fill="rgb(255,255,255)" fill-opacity="1" effectType="innerShadow" stdDeviation="4" radius="0" />
		</g>
		<filter id="filter_1" width="43.734009" height="43.733887" x="0.132935" y="9.805054" filterUnits="userSpaceOnUse" customEffect="url(#pixso_custom_effect_1)" color-interpolation-filters="sRGB">
			<feFlood flood-opacity="0" result="BackgroundImageFix" />
			<feBlend result="shape" in="SourceGraphic" in2="BackgroundImageFix" mode="normal" />
			<feOffset dx="0.000000" dy="-2.000000" in="SourceAlpha" />
			<feGaussianBlur stdDeviation="1.33333337" />
			<feComposite k2="-1" k3="1" in2="SourceAlpha" operator="arithmetic" />
			<feColorMatrix type="matrix" values="0 0 0 0 1 0 0 0 0 1 0 0 0 0 1 0 0 0 1 0 " />
			<feBlend result="effect_innerShadow_1" in2="shape" mode="normal" />
		</filter>
		<linearGradient id="paint_linear_10" x1="0.13293457" x2="0.13293457" y1="9.80505371" y2="53.5389557" gradientUnits="userSpaceOnUse">
			<stop stop-color="rgb(242,247,253)" offset="0" stop-opacity="1" />
			<stop stop-color="rgb(239,245,251)" offset="0.878105462" stop-opacity="1" />
			<stop stop-color="rgb(206,220,234)" offset="1" stop-opacity="1" />
		</linearGradient>
		<linearGradient id="paint_linear_11" x1="16.8820801" x2="16.8820801" y1="15.3881836" y2="36.7898788" gradientUnits="userSpaceOnUse">
			<stop stop-color="rgb(219,237,255)" offset="0" stop-opacity="1" />
			<stop stop-color="rgb(197,213,230)" offset="0.659901023" stop-opacity="1" />
			<stop stop-color="rgb(197,213,230)" offset="0.669901013" stop-opacity="0.890196085" />
			<stop stop-color="rgb(199,215,230)" offset="1" stop-opacity="0" />
		</linearGradient>
		<radialGradient id="paint_radial_0" cx="0" cy="0" r="1" gradientUnits="userSpaceOnUse" gradientTransform="matrix(9.73233,-8.36114,8.28081,9.63883,20.5848,6.80886)">
			<stop stop-color="rgb(187,213,250)" offset="0" stop-opacity="1" />
			<stop stop-color="rgb(72,133,235)" offset="0.650529981" stop-opacity="1" />
			<stop stop-color="rgb(45,114,231)" offset="1" stop-opacity="1" />
		</radialGradient>
	</defs>
	<mask id="mask_7" width="44.000000" height="54.000000" x="0.000000" y="0.000000" maskUnits="userSpaceOnUse">
		<g filter="url(#pixso_custom_mask_type_outline)">
			<rect id="游戏" width="44.000000" height="54.000000" x="0.000000" y="0.000000" fill="rgb(255,255,255)" />
		</g>
	</mask>
	<g id="游戏" showMaskRef="url(#show_mask_7)" mask="url(#mask_7)">
		<rect id="show_mask_7" width="44.000000" height="54.000000" x="0.000000" y="0.000000" fill="rgb(255,255,255)" fill-opacity="0.00392156886" />
		<path id="路径" d="M0 0L44.0001 0L44.0001 54L0 54L0 0Z" fill-rule="evenodd" />
		<g id="组 125901" showMaskRef="url(#show_mask_8)" mask="url(#mask_8)">
			<rect id="show_mask_8" width="43.734009" height="53.038940" x="0.132935" y="0.500000" fill="rgb(255,255,255)" fill-opacity="0.00392156886" />
			<path id="路径" d="M0.132935 0.5L43.8668 0.5L43.8668 53.5389L0.132935 53.5389L0.132935 0.5Z" fill-rule="evenodd" />
			<g filter="url(#filter_1)">
				<path id="路径" d="M0.132935 9.80505L43.8669 9.80505L43.8669 53.539L0.132935 53.539L0.132935 9.80505Z" fill="url(#paint_linear_10)" fill-rule="evenodd" />
			</g>
			<path id="路径" d="M36.4228 31.672C36.4228 39.6376 29.9655 46.0949 21.9999 46.0949C14.0344 46.0949 7.57703 39.6376 7.57703 31.672C7.57703 23.7065 14.0344 17.2491 21.9999 17.2491C29.9655 17.2491 36.4228 23.7065 36.4228 31.672Z" fill="rgb(231,241,250)" fill-rule="evenodd" />
			<path id="路径" d="M21.9999 46.0949C29.9655 46.0949 36.4228 39.6376 36.4228 31.672C36.4228 23.7065 29.9655 17.2491 21.9999 17.2491C14.0344 17.2491 7.57703 23.7065 7.57703 31.672C7.57703 39.6376 14.0344 46.0949 21.9999 46.0949ZM24.9721 44.767C24.0061 44.9856 23.0154 45.0949 21.9999 45.0949C20.9844 45.0949 19.9937 44.9856 19.0276 44.767C18.2613 44.5936 17.5106 44.3514 16.7754 44.0405C16.0258 43.7234 15.3162 43.3454 14.6466 42.9064C13.8817 42.4049 13.169 41.824 12.5085 41.1634C11.848 40.503 11.2671 39.7904 10.7657 39.0256C10.3266 38.3559 9.94854 37.6462 9.63145 36.8965C9.32048 36.1613 9.0783 35.4105 8.90489 34.6442C8.68632 33.6782 8.57703 32.6875 8.57703 31.672C8.57703 30.6566 8.68632 29.6658 8.90491 28.6998C9.07831 27.9335 9.32049 27.1827 9.63145 26.4475C9.94853 25.6979 10.3266 24.9882 10.7656 24.3186C11.267 23.5538 11.848 22.8411 12.5085 22.1806C13.169 21.5202 13.8816 20.9392 14.6463 20.4378C15.316 19.9988 16.0257 19.6207 16.7754 19.3036C17.5106 18.9926 18.2613 18.7504 19.0276 18.577C19.9937 18.3584 20.9844 18.2491 21.9999 18.2491C23.0154 18.2491 24.0061 18.3584 24.9721 18.577C25.7384 18.7504 26.4892 18.9926 27.2244 19.3036C27.9741 19.6206 28.6837 19.9987 29.3534 20.4378C30.1182 20.9392 30.8309 21.5201 31.4913 22.1806C32.1518 22.8411 32.7327 23.5537 33.2341 24.3184C33.6732 24.9881 34.0513 25.6978 34.3684 26.4475C34.6794 27.1827 34.9215 27.9335 35.0949 28.6998C35.3135 29.6658 35.4228 30.6565 35.4228 31.672C35.4228 32.6875 35.3135 33.6782 35.095 34.6442C34.9216 35.4105 34.6794 36.1613 34.3684 36.8965C34.0513 37.6463 33.6731 38.3561 33.2339 39.0259C32.7326 39.7906 32.1517 40.5031 31.4914 41.1634C30.8308 41.824 30.1181 42.405 29.3532 42.9064C28.6836 43.3454 27.974 43.7234 27.2244 44.0405C26.4892 44.3514 25.7385 44.5936 24.9721 44.767Z" fill="rgb(255,255,255)" fill-rule="evenodd" />
			<path id="路径" d="M29.9092 31.672C29.9092 36.0402 26.3681 39.5813 21.9999 39.5813C17.6317 39.5813 14.0906 36.0402 14.0906 31.672C14.0906 27.3038 17.6317 23.7627 21.9999 23.7627C26.3681 23.7627 29.9092 27.3038 29.9092 31.672Z" fill="rgb(164,194,221)" fill-rule="evenodd" />
			<path id="路径" d="M21.9999 39.5813C26.3681 39.5813 29.9092 36.0402 29.9092 31.672C29.9092 27.3038 26.3681 23.7627 21.9999 23.7627C17.6317 23.7627 14.0906 27.3038 14.0906 31.672C14.0906 36.0402 17.6317 39.5813 21.9999 39.5813ZM24.6523 38.0754C23.838 38.4127 22.9539 38.5813 21.9999 38.5813C21.0459 38.5813 20.1618 38.4127 19.3475 38.0754C18.5333 37.7381 17.7888 37.2322 17.1143 36.5576C16.4397 35.8831 15.9338 35.1387 15.5965 34.3244C15.2592 33.5101 15.0906 32.626 15.0906 31.672C15.0906 30.718 15.2592 29.8339 15.5965 29.0196C15.9338 28.2054 16.4397 27.461 17.1143 26.7864C17.7888 26.1118 18.5333 25.6059 19.3475 25.2686C20.1618 24.9313 21.0459 24.7627 21.9999 24.7627C22.9539 24.7627 23.838 24.9313 24.6523 25.2686C25.4666 25.6059 26.211 26.1118 26.8855 26.7864C27.5601 27.461 28.066 28.2054 28.4033 29.0196C28.7406 29.8339 28.9092 30.718 28.9092 31.672C28.9092 32.626 28.7406 33.5101 28.4033 34.3244C28.066 35.1387 27.5601 35.8831 26.8855 36.5576C26.211 37.2322 25.4666 37.7381 24.6523 38.0754Z" fill="rgb(131,171,218)" fill-rule="evenodd" />
			<path id="路径" d="M41.0754 46.095C41.0754 48.1506 39.2007 49.817 36.8881 49.817C34.5755 49.817 32.7008 48.1506 32.7008 46.095C32.7008 44.0393 34.5755 42.3729 36.8881 42.3729C39.2007 42.3729 41.0754 44.0393 41.0754 46.095Z" fill="rgb(244,247,252)" fill-rule="evenodd" />
			<path id="路径" d="M36.8881 49.817C39.2007 49.817 41.0754 48.1506 41.0754 46.095C41.0754 44.0393 39.2007 42.3729 36.8881 42.3729C34.5755 42.3729 32.7008 44.0393 32.7008 46.095C32.7008 48.1506 34.5755 49.817 36.8881 49.817ZM38.4535 48.4735C37.988 48.7025 37.4662 48.817 36.8881 48.817C36.31 48.817 35.7882 48.7025 35.3226 48.4735C35.0612 48.345 34.8175 48.1802 34.5916 47.9794C34.2186 47.6478 33.9627 47.2767 33.824 46.8659C33.7419 46.6228 33.7008 46.3658 33.7008 46.095C33.7008 45.8241 33.7419 45.5671 33.824 45.324C33.9627 44.9132 34.2186 44.5421 34.5916 44.2105C34.8175 44.0097 35.0612 43.845 35.3226 43.7164C35.7882 43.4874 36.31 43.3729 36.8881 43.3729C37.4662 43.3729 37.988 43.4874 38.4536 43.7164C38.715 43.845 38.9587 44.0097 39.1846 44.2105C39.5576 44.5421 39.8135 44.9132 39.9522 45.324C40.0343 45.5671 40.0754 45.8241 40.0754 46.095C40.0754 46.3658 40.0343 46.6228 39.9522 46.8659C39.8135 47.2767 39.5576 47.6478 39.1846 47.9794C38.9587 48.1802 38.715 48.345 38.4535 48.4735Z" fill="rgb(216,220,229)" fill-rule="evenodd" />
			<path id="路径" d="M16.8821 15.3882L27.1177 15.3882L27.1177 36.7899L16.8821 36.7899L16.8821 15.3882Z" fill="url(#paint_linear_11)" fill-rule="evenodd" />
			<path id="路径" d="M31.7703 9.80509C31.7703 14.9441 27.396 19.1102 22 19.1102C16.604 19.1102 12.2296 14.9441 12.2296 9.80509C12.2296 4.66603 16.604 0.5 22 0.5C27.396 0.5 31.7703 4.66603 31.7703 9.80509Z" fill="url(#paint_radial_0)" fill-rule="evenodd" />
		</g>
		<path id="路径" d="M0 0L44.0001 0L44.0001 54L0 54L0 0Z" fill-rule="evenodd" />
	</g>
</svg>
