<svg viewBox="0 0 60 60" xmlns="http://www.w3.org/2000/svg" xmlns:xlink="http://www.w3.org/1999/xlink" width="60.000000" height="60.000000" fill="none" customFrame="#000000">
	<mask id="mask_17" width="43.734009" height="53.038940" x="8.132935" y="3.500000" maskUnits="userSpaceOnUse">
		<g filter="url(#pixso_custom_mask_type_outline)">
			<rect id="组 125901" width="43.734009" height="53.038940" x="8.132935" y="3.500000" fill="rgb(255,255,255)" />
		</g>
	</mask>
	<mask id="mask_16" width="44.000000" height="54.000000" x="8.000000" y="3.000000" maskUnits="userSpaceOnUse">
		<g filter="url(#pixso_custom_mask_type_outline)">
			<rect id="游戏" width="44.000000" height="54.000000" x="8.000000" y="3.000000" fill="rgb(255,255,255)" />
		</g>
	</mask>
	<defs>
		<filter id="pixso_custom_mask_type_outline">
			<feColorMatrix type="matrix" values="0 0 0 0 1 0 0 0 0 1 0 0 0 0 1 0 0 0 1 0 " />
		</filter>
		<g id="pixso_custom_effect_3">
			<effect x="0.000000" y="-2.000000" visibility="visible" fill="rgb(255,255,255)" fill-opacity="1" effectType="innerShadow" stdDeviation="4" radius="0" />
		</g>
		<filter id="filter_3" width="43.734009" height="43.733887" x="8.132935" y="12.805054" filterUnits="userSpaceOnUse" customEffect="url(#pixso_custom_effect_3)" color-interpolation-filters="sRGB">
			<feFlood flood-opacity="0" result="BackgroundImageFix" />
			<feBlend result="shape" in="SourceGraphic" in2="BackgroundImageFix" mode="normal" />
			<feOffset dx="0.000000" dy="-2.000000" in="SourceAlpha" />
			<feGaussianBlur stdDeviation="1.33333337" />
			<feComposite k2="-1" k3="1" in2="SourceAlpha" operator="arithmetic" />
			<feColorMatrix type="matrix" values="0 0 0 0 1 0 0 0 0 1 0 0 0 0 1 0 0 0 1 0 " />
			<feBlend result="effect_innerShadow_1" in2="shape" mode="normal" />
		</filter>
		<linearGradient id="paint_linear_19" x1="8.13293457" x2="8.13293457" y1="12.8050537" y2="56.5389557" gradientUnits="userSpaceOnUse">
			<stop stop-color="rgb(242,247,253)" offset="0" stop-opacity="1" />
			<stop stop-color="rgb(239,245,251)" offset="0.878105462" stop-opacity="1" />
			<stop stop-color="rgb(206,220,234)" offset="1" stop-opacity="1" />
		</linearGradient>
		<linearGradient id="paint_linear_20" x1="24.8820801" x2="24.8820801" y1="18.3881836" y2="39.7898788" gradientUnits="userSpaceOnUse">
			<stop stop-color="rgb(219,237,255)" offset="0" stop-opacity="1" />
			<stop stop-color="rgb(197,213,230)" offset="0.659901023" stop-opacity="1" />
			<stop stop-color="rgb(197,213,230)" offset="0.669901013" stop-opacity="0.890196085" />
			<stop stop-color="rgb(199,215,230)" offset="1" stop-opacity="0" />
		</linearGradient>
		<radialGradient id="paint_radial_1" cx="0" cy="0" r="1" gradientUnits="userSpaceOnUse" gradientTransform="matrix(9.73232,-8.36114,8.28081,9.63883,28.5848,9.80886)">
			<stop stop-color="rgb(187,213,250)" offset="0" stop-opacity="1" />
			<stop stop-color="rgb(72,133,235)" offset="0.650529981" stop-opacity="1" />
			<stop stop-color="rgb(45,114,231)" offset="1" stop-opacity="1" />
		</radialGradient>
	</defs>
	<mask id="mask_15" width="60.000000" height="60.000000" x="0.000000" y="0.000000" maskUnits="userSpaceOnUse">
		<g filter="url(#pixso_custom_mask_type_outline)">
			<rect id="游戏60x60" width="60.000000" height="60.000000" x="0.000000" y="0.000000" fill="rgb(255,255,255)" />
		</g>
	</mask>
	<g id="游戏60x60" showMaskRef="url(#show_mask_15)" mask="url(#mask_15)">
		<rect id="show_mask_15" width="60.000000" height="60.000000" x="0.000000" y="0.000000" fill="rgb(255,255,255)" fill-opacity="0.00392156886" />
		<path id="路径" d="M0 0L60 0L60 60L0 60L0 0Z" fill-rule="evenodd" />
		<g id="游戏" showMaskRef="url(#show_mask_16)" mask="url(#mask_16)">
			<rect id="show_mask_16" width="44.000000" height="54.000000" x="8.000000" y="3.000000" fill="rgb(255,255,255)" fill-opacity="0.00392156886" />
			<path id="路径" d="M8 3L52.0001 3L52.0001 57L8 57L8 3Z" fill-rule="evenodd" />
			<g id="组 125901" showMaskRef="url(#show_mask_17)" mask="url(#mask_17)">
				<rect id="show_mask_17" width="43.734009" height="53.038940" x="8.132935" y="3.500000" fill="rgb(255,255,255)" fill-opacity="0.00392156886" />
				<path id="路径" d="M8.13293 3.5L51.8668 3.5L51.8668 56.5389L8.13293 56.5389L8.13293 3.5Z" fill-rule="evenodd" />
				<g filter="url(#filter_3)">
					<path id="路径" d="M8.13293 12.8051L51.8669 12.8051L51.8669 56.539L8.13293 56.539L8.13293 12.8051Z" fill="url(#paint_linear_19)" fill-rule="evenodd" />
				</g>
				<path id="路径" d="M44.4228 34.672C44.4228 42.6376 37.9655 49.0949 29.9999 49.0949C22.0344 49.0949 15.577 42.6376 15.577 34.672C15.577 26.7065 22.0344 20.2491 29.9999 20.2491C37.9655 20.2491 44.4228 26.7065 44.4228 34.672Z" fill="rgb(231,241,250)" fill-rule="evenodd" />
				<path id="路径" d="M29.9999 49.0949C37.9655 49.0949 44.4228 42.6376 44.4228 34.672C44.4228 26.7065 37.9655 20.2491 29.9999 20.2491C22.0344 20.2491 15.577 26.7065 15.577 34.672C15.577 42.6376 22.0344 49.0949 29.9999 49.0949ZM32.9721 47.767C32.0061 47.9856 31.0154 48.0949 29.9999 48.0949C28.9844 48.0949 27.9937 47.9856 27.0276 47.767C26.2613 47.5936 25.5106 47.3514 24.7754 47.0405C24.0258 46.7234 23.3162 46.3454 22.6466 45.9064C21.8817 45.4049 21.169 44.824 20.5085 44.1634C19.848 43.503 19.2671 42.7904 18.7657 42.0256C18.3266 41.3559 17.9485 40.6462 17.6315 39.8965C17.3205 39.1613 17.0783 38.4105 16.9049 37.6442C16.6863 36.6782 16.577 35.6875 16.577 34.672C16.577 33.6566 16.6863 32.6658 16.9049 31.6998C17.0783 30.9335 17.3205 30.1827 17.6315 29.4475C17.9485 28.6979 18.3266 27.9882 18.7656 27.3186C19.267 26.5538 19.848 25.8411 20.5085 25.1806C21.169 24.5202 21.8816 23.9392 22.6463 23.4378C23.316 22.9988 24.0257 22.6207 24.7754 22.3036C25.5106 21.9926 26.2613 21.7504 27.0276 21.577C27.9937 21.3584 28.9844 21.2491 29.9999 21.2491C31.0154 21.2491 32.0061 21.3584 32.9721 21.577C33.7384 21.7504 34.4892 21.9926 35.2244 22.3036C35.9741 22.6206 36.6837 22.9987 37.3534 23.4378C38.1182 23.9392 38.8308 24.5201 39.4913 25.1806C40.1518 25.8411 40.7327 26.5537 41.2341 27.3184C41.6732 27.9881 42.0513 28.6978 42.3684 29.4475C42.6794 30.1827 42.9215 30.9335 43.0949 31.6998C43.3135 32.6658 43.4228 33.6565 43.4228 34.672C43.4228 35.6875 43.3135 36.6782 43.095 37.6442C42.9216 38.4105 42.6794 39.1613 42.3684 39.8965C42.0513 40.6463 41.6731 41.3561 41.2339 42.0259C40.7326 42.7906 40.1517 43.5031 39.4914 44.1634C38.8308 44.824 38.1181 45.405 37.3532 45.9064C36.6836 46.3454 35.974 46.7234 35.2244 47.0405C34.4892 47.3514 33.7384 47.5936 32.9721 47.767Z" fill="rgb(255,255,255)" fill-rule="evenodd" />
				<path id="路径" d="M37.9092 34.672C37.9092 39.0402 34.3681 42.5813 29.9999 42.5813C25.6317 42.5813 22.0906 39.0402 22.0906 34.672C22.0906 30.3038 25.6317 26.7627 29.9999 26.7627C34.3681 26.7627 37.9092 30.3038 37.9092 34.672Z" fill="rgb(164,194,221)" fill-rule="evenodd" />
				<path id="路径" d="M29.9999 42.5813C34.3681 42.5813 37.9092 39.0402 37.9092 34.672C37.9092 30.3038 34.3681 26.7627 29.9999 26.7627C25.6317 26.7627 22.0906 30.3038 22.0906 34.672C22.0906 39.0402 25.6317 42.5813 29.9999 42.5813ZM32.6523 41.0754C31.838 41.4127 30.9539 41.5813 29.9999 41.5813C29.0459 41.5813 28.1618 41.4127 27.3475 41.0754C26.5333 40.7381 25.7888 40.2322 25.1143 39.5576C24.4397 38.8831 23.9338 38.1387 23.5965 37.3244C23.2592 36.5101 23.0906 35.626 23.0906 34.672C23.0906 33.718 23.2592 32.8339 23.5965 32.0196C23.9338 31.2054 24.4397 30.461 25.1143 29.7864C25.7888 29.1118 26.5333 28.6059 27.3475 28.2686C28.1618 27.9313 29.0459 27.7627 29.9999 27.7627C30.9539 27.7627 31.838 27.9313 32.6523 28.2686C33.4666 28.6059 34.211 29.1118 34.8855 29.7864C35.5601 30.461 36.066 31.2054 36.4033 32.0196C36.7406 32.8339 36.9092 33.718 36.9092 34.672C36.9092 35.626 36.7406 36.5101 36.4033 37.3244C36.066 38.1387 35.5601 38.8831 34.8855 39.5576C34.211 40.2322 33.4666 40.7381 32.6523 41.0754Z" fill="rgb(131,171,218)" fill-rule="evenodd" />
				<path id="路径" d="M49.0754 49.095C49.0754 51.1506 47.2007 52.817 44.8881 52.817C42.5755 52.817 40.7008 51.1506 40.7008 49.095C40.7008 47.0393 42.5755 45.3729 44.8881 45.3729C47.2007 45.3729 49.0754 47.0393 49.0754 49.095Z" fill="rgb(244,247,252)" fill-rule="evenodd" />
				<path id="路径" d="M44.8881 52.817C47.2007 52.817 49.0754 51.1506 49.0754 49.095C49.0754 47.0393 47.2007 45.3729 44.8881 45.3729C42.5755 45.3729 40.7008 47.0393 40.7008 49.095C40.7008 51.1506 42.5755 52.817 44.8881 52.817ZM46.4535 51.4735C45.988 51.7025 45.4662 51.817 44.8881 51.817C44.31 51.817 43.7882 51.7025 43.3226 51.4735C43.0612 51.345 42.8175 51.1802 42.5916 50.9794C42.2186 50.6478 41.9627 50.2767 41.824 49.8659C41.7419 49.6228 41.7008 49.3658 41.7008 49.095C41.7008 48.8241 41.7419 48.5671 41.824 48.324C41.9627 47.9132 42.2186 47.5421 42.5916 47.2105C42.8175 47.0097 43.0612 46.845 43.3226 46.7164C43.7882 46.4874 44.31 46.3729 44.8881 46.3729C45.4662 46.3729 45.988 46.4874 46.4536 46.7164C46.715 46.845 46.9587 47.0097 47.1846 47.2105C47.5576 47.5421 47.8135 47.9132 47.9522 48.324C48.0343 48.5671 48.0754 48.8241 48.0754 49.095C48.0754 49.3658 48.0343 49.6228 47.9522 49.8659C47.8135 50.2767 47.5576 50.6478 47.1846 50.9794C46.9587 51.1802 46.715 51.345 46.4535 51.4735Z" fill="rgb(216,220,229)" fill-rule="evenodd" />
				<path id="路径" d="M24.8821 18.3882L35.1177 18.3882L35.1177 39.7899L24.8821 39.7899L24.8821 18.3882Z" fill="url(#paint_linear_20)" fill-rule="evenodd" />
				<path id="路径" d="M39.7703 12.8051C39.7703 17.9441 35.396 22.1102 30 22.1102C24.604 22.1102 20.2296 17.9441 20.2296 12.8051C20.2296 7.66603 24.604 3.5 30 3.5C35.396 3.5 39.7703 7.66603 39.7703 12.8051Z" fill="url(#paint_radial_1)" fill-rule="evenodd" />
			</g>
			<path id="路径" d="M8 3L52.0001 3L52.0001 57L8 57L8 3Z" fill-rule="evenodd" />
		</g>
		<path id="路径" d="M0 0L60 0L60 60L0 60L0 0Z" fill-rule="evenodd" />
	</g>
</svg>
